<?xml version="1.0" encoding="utf-8"?>
<!-- Generator: Adobe Illustrator 26.2.1, SVG Export Plug-In . SVG Version: 6.00 Build 0)  -->
<svg version="1.2" baseProfile="tiny" id="Ebene_1" xmlns="http://www.w3.org/2000/svg" xmlns:xlink="http://www.w3.org/1999/xlink"
	 x="0px" y="0px" viewBox="0 0 2000 2000" overflow="visible" xml:space="preserve">
<path stroke="#000000" stroke-miterlimit="10" d="M1729.7,1096.6l-633.1,633.1c-53.6,53.6-140.6,53.6-194.2,0l-633.1-633.1
	c-53.6-53.6-53.6-140.6,0-194.2l633.1-633.1c53.6-53.6,140.6-53.6,194.2,0l633.1,633.1C1783.3,956,1783.3,1043,1729.7,1096.6z"/>
<g>
	<path fill="#FFFFFF" d="M1060.6,1651.3c-18.8,18.8-38.8,38.1-59.3,37.7c-20.5-0.4-39.8-20.1-58.6-38.9l-592.4-596
		c-18.8-18.8-40.9-36.1-41.3-56.5c-0.4-20.5,21.3-42.5,40.1-61.3c18-18,37.2-26.7,57.7-26.3c20.5,0.4,40.1,10,58.9,28.8l75.3,75.3
		c23.5,23.5,61.5,23.5,85,0l97.4-97.4c23.5-23.5,23.5-61.5,0-85l-75.3-75.3c-18.8-18.8-37.3-42-37.7-62.5
		c-0.4-20.5,17.2-36.1,35.2-54.1c18.8-18.8,32.3-38.2,52.6-37.6c20.3,0.6,45.8,20.7,64.6,39.5L1052,929.1
		c18.8,18.8,16.9,27.1,17.6,47.4c0.6,20.3-16.7,33.6-35.5,52.4c-18,18-28.9,33-49.4,32.6c-20.5-0.4-28.5,1.2-47.3-17.6l-34.9-34.1
		c-23.5-23-61.2-22.8-84.5,0.5l-98.1,98.1c-23.4,23.4-23.5,61.3-0.2,84.8l338.5,341.6c18.8,18.8,28.5,38.4,29.1,58.6
		C1087.9,1613.6,1079,1632.9,1060.6,1651.3z"/>
</g>
<g>
	<path fill="#FFFFFF" d="M971.7,1353.4c-18.8-18.8-34.6-31.8-34.2-52.3c0.4-20.5,3.8-26.8,22.2-45.2l373.7-367.5
		c20.8-20.8,20.8-54.4,0-75.2L957.4,437.4c-15.5-15.5-23.5-31.5-23.2-48c0.2-16.5,8-31.9,23-47c15-15,28.2-33.9,44.3-33.7
		c16.1,0.2,34.4,19.2,49.9,34.7l600.1,600.1c15.9,15.9,39.5,39.7,39.5,55.6c0,15.9-13.5,31.3-28.5,46.4
		c-15.5,15.5-31.2,23.3-47.3,23.5c-16.1,0.2-35.2-8-57.7-31.5l-33.8-33.8c-20.8-20.8-54.4-20.8-75.2,0l-373.7,367.5
		c-18.4,18.4-27.8,22-47.9,22.8C1006.9,1394.8,990.5,1372.2,971.7,1353.4z"/>
</g>
</svg>
